# xmcd CD database file
#
# Track frame offsets:
#	150
#	18335
#	28285
#	43070
#	63310
#	76220
#	88665
#	103092
#	133595
#	145370
#	157910
#	169130
#	181212
#	195342
#	208360
#	220410
#
# Disc length: 3102 seconds
#
# Revision: 1
# Processed by: cddbd v1.5PL3 Copyright (c) Steve Scherf et al.
# Submitted via: CDex 1.51
#
DISCID=e30c1c10
DTITLE=Dimitri Plazomiti - Esperina
DYEAR=1999
DGENRE=New Age
TTITLE0=Xromata toy deilinoy
TTITLE1=Ena paradyro sto iliovasilema
TTITLE2=Mesa sta fota
TTITLE3=Dermaikon
TTITLE4=Ena doro na soy axizei
TTITLE5=Mia eyjeniki kalyspera
TTITLE6=Ayta poy den eipame
TTITLE7=Ena xeimoniatiko apojema
TTITLE8=Synantisi
TTITLE9=Soyroypo
TTITLE10=Stin ajora
TTITLE11=Filoxenia
TTITLE12=Esperini xara
TTITLE13=Aposperitis
TTITLE14=Tis elpidas
TTITLE15=Kalinyxta
EXTD=YEAR: 1999
EXTT0=
EXTT1=
EXTT2=
EXTT3=
EXTT4=
EXTT5=
EXTT6=
EXTT7=
EXTT8=
EXTT9=
EXTT10=
EXTT11=
EXTT12=
EXTT13=
EXTT14=
EXTT15=
PLAYORDER=
